<?xml version="1.0" standalone="no"?>
<!DOCTYPE svg PUBLIC "-//W3C//DTD SVG 20010904//EN"
 "http://www.w3.org/TR/2001/REC-SVG-20010904/DTD/svg10.dtd">
<svg version="1.0" xmlns="http://www.w3.org/2000/svg"
 width="1280.000000pt" height="1280.000000pt" viewBox="0 0 1280.000000 1280.000000"
 preserveAspectRatio="xMidYMid meet">
<metadata>
Created by potrace 1.15, written by Peter Selinger 2001-2017
</metadata>
<g transform="translate(0.000000,1280.000000) scale(0.100000,-0.100000)"
fill="#000000" stroke="none">
<path d="M6886 12651 c3 -14 140 -541 303 -1173 l297 -1148 -30 -4 c-17 -3
-89 -10 -161 -16 -802 -70 -1650 -210 -2330 -385 -1451 -373 -2475 -956 -3058
-1742 -211 -285 -371 -623 -457 -964 -204 -808 -42 -1754 469 -2744 570 -1102
1542 -2206 2701 -3067 691 -513 1431 -910 2100 -1126 296 -95 608 -160 855
-178 l90 -6 -115 59 c-786 409 -1735 1361 -2400 2409 -444 700 -745 1398 -870
2024 -53 265 -64 382 -64 665 0 263 4 311 45 525 46 234 168 531 297 725 267
399 676 715 1209 935 468 193 926 299 1671 385 32 3 42 1 42 -10 0 -10 -466
-1824 -590 -2295 l-9 -35 27 31 c15 17 72 84 128 150 155 183 338 377 595 629
1212 1192 2665 2101 4149 2595 149 49 493 152 568 170 30 7 50 16 45 20 -4 4
-93 30 -198 59 -786 218 -1634 588 -2401 1047 -729 436 -1397 945 -2055 1567
-270 255 -521 522 -822 877 -30 35 -37 39 -31 21z"/>
</g>
</svg>
